<svg width="48" height="49" viewBox="0 0 48 49" fill="none" xmlns="http://www.w3.org/2000/svg">
<path d="M12 4.49999L6 12.5V40.5C6 41.5609 6.42143 42.5783 7.17157 43.3284C7.92172 44.0786 8.93913 44.5 10 44.5H38C39.0609 44.5 40.0783 44.0786 40.8284 43.3284C41.5786 42.5783 42 41.5609 42 40.5V12.5L36 4.49999H12Z" stroke="#868E96" stroke-width="4" stroke-linecap="round" stroke-linejoin="round"/>
<path d="M6 12.5H42" stroke="#868E96" stroke-width="4" stroke-linecap="round" stroke-linejoin="round"/>
<path d="M32.0003 20.5001C32.0003 22.6218 31.1574 24.6566 29.6572 26.1569C28.1569 27.6572 26.122 28.5001 24.0003 28.5001C21.8786 28.5001 19.8437 27.6572 18.3435 26.1569C16.8432 24.6566 16.0003 22.6218 16.0003 20.5001" stroke="#868E96" stroke-width="4" stroke-linecap="round" stroke-linejoin="round"/>
</svg>
