<svg width="10" height="11" viewBox="0 0 10 11" fill="none" xmlns="http://www.w3.org/2000/svg">
<path d="M8.92017 0.875H6.57642L6.3811 0.523438C6.30298 0.367188 6.14673 0.25 5.97095 0.25H3.72485C3.54907 0.25 3.39282 0.367188 3.3147 0.523438L3.13892 0.875H0.795166C0.619385 0.875 0.482666 1.03125 0.482666 1.1875V1.8125C0.482666 1.98828 0.619385 2.125 0.795166 2.125H8.92017C9.07642 2.125 9.23267 1.98828 9.23267 1.8125V1.1875C9.23267 1.03125 9.07642 0.875 8.92017 0.875ZM1.51782 9.37109C1.53735 9.87891 1.94751 10.25 2.45532 10.25H7.24048C7.74829 10.25 8.15845 9.87891 8.17798 9.37109L8.60767 2.75H1.10767L1.51782 9.37109Z" fill="#868E96"/>
</svg>
